<?xml version="1.0" encoding="utf-8"?>
<!-- Generator: Adobe Illustrator 24.2.1, SVG Export Plug-In . SVG Version: 6.00 Build 0)  -->
<svg version="1.1" id="Layer_1" xmlns="http://www.w3.org/2000/svg" xmlns:xlink="http://www.w3.org/1999/xlink" x="0px" y="0px"
	 viewBox="0 0 1366 202.49" style="enable-background:new 0 0 1366 202.49;" xml:space="preserve">
<style type="text/css">
	.st0{fill:#332633;}
	.st1{fill:#7F707F;}
	.st2{fill:none;stroke:#000000;stroke-miterlimit:10;}
	.st3{fill:#E0E0E0;}
	.st4{fill:none;stroke:#E0E0E0;stroke-width:38;stroke-miterlimit:10;}
	.st5{display:none;fill:#1D2233;}
	.st6{fill:#B3B3B3;}
</style>
<rect y="-282.75" class="st5" width="1366" height="768"/>
<g>
	<path class="st6" d="M837.38,82.86c-18.96,0-34.33,15.37-34.33,34.33c0,18.96,15.37,34.33,34.33,34.33s34.33-15.37,34.33-34.33
		C871.72,98.23,856.35,82.86,837.38,82.86z M837.38,134.32c-9.46,0-17.13-7.67-17.13-17.13s7.67-17.13,17.13-17.13
		s17.13,7.67,17.13,17.13S846.85,134.32,837.38,134.32z"/>
	<path class="st6" d="M605.83,83.19c-18.96,0-34.33,15.37-34.33,34.33s15.37,34.33,34.33,34.33s34.33-15.37,34.33-34.33
		S624.79,83.19,605.83,83.19z M605.83,134.65c-9.46,0-17.13-7.67-17.13-17.13s7.67-17.13,17.13-17.13s17.13,7.67,17.13,17.13
		S615.29,134.65,605.83,134.65z"/>
	<path class="st6" d="M562.95,117.19c0-18.96-15.37-34.33-34.33-34.33c-18.96,0-34.33,15.37-34.33,34.33
		c0,12.81,7.02,23.97,17.41,29.87v-27.2c-0.14-0.87-0.21-1.76-0.21-2.67c0-9.46,7.67-17.13,17.13-17.13s17.13,7.67,17.13,17.13
		c0,0.07,0,0.14-0.01,0.21l0.01,0.73v33.32h17.13v-32.06C562.92,118.67,562.95,117.93,562.95,117.19z"/>
	<path class="st6" d="M743.04,117.26h44.93v-0.07h6.54c0-15.98-10.92-29.41-25.7-33.24c-0.54-18.49-15.69-33.32-34.31-33.32
		c-18.28,0-33.21,14.28-34.27,32.29h-0.07v4.51c-5.04-2.91-10.89-4.58-17.13-4.58c-18.96,0-34.33,15.37-34.33,34.33
		c0,18.96,15.37,34.33,34.33,34.33c18.96,0,34.33-15.37,34.33-34.33c0-0.71-0.03-1.42-0.07-2.12v-30.1h0.07
		c0-9.46,7.67-17.13,17.13-17.13v0c9.11,0,16.56,7.12,17.1,16.1c-14.81,3.81-25.76,17.25-25.76,33.25c0,7.43,2.37,14.31,6.38,19.93
		c0,0,0,0.01,0.01,0.01c0.63,0.89,1.31,1.74,2.02,2.56c0.02,0.02,0.04,0.05,0.06,0.07c0.69,0.79,1.41,1.54,2.17,2.27
		c0.06,0.05,0.11,0.11,0.17,0.16c0.72,0.68,1.47,1.33,2.25,1.94c0.11,0.09,0.21,0.17,0.32,0.25c0.24,0.18,0.47,0.36,0.71,0.54
		c0.12,0.09,0.25,0.18,0.37,0.27c0.39,0.28,0.78,0.54,1.18,0.8c0.17,0.11,0.34,0.22,0.52,0.33c0.22,0.13,0.43,0.27,0.65,0.4
		c0.25,0.15,0.5,0.29,0.75,0.43c0.27,0.15,0.55,0.3,0.83,0.45c0.24,0.13,0.49,0.25,0.73,0.38c0.19,0.09,0.38,0.19,0.58,0.28
		c0.35,0.17,0.71,0.33,1.07,0.48c0.17,0.07,0.35,0.15,0.52,0.22c0.32,0.13,0.63,0.26,0.96,0.38c0.17,0.06,0.34,0.13,0.51,0.19
		c0.43,0.15,0.87,0.3,1.31,0.44c0.1,0.03,0.19,0.06,0.29,0.08c0.38,0.12,0.77,0.23,1.16,0.33c0.15,0.04,0.3,0.08,0.45,0.12
		c0.47,0.12,0.94,0.23,1.42,0.33c0.05,0.01,0.11,0.02,0.17,0.03c0.44,0.09,0.89,0.17,1.34,0.24c0.14,0.02,0.27,0.04,0.41,0.06
		c0.5,0.07,1,0.14,1.51,0.19c0.02,0,0.05,0,0.07,0.01c0.49,0.05,0.99,0.08,1.49,0.11c0.13,0.01,0.26,0.01,0.4,0.02
		c0.52,0.02,1.04,0.04,1.57,0.04c12.72,0,23.82-6.92,29.75-17.2h-29.75C750.74,134.32,743.08,126.69,743.04,117.26z M683.03,134.32
		c-9.46,0-17.13-7.67-17.13-17.13s7.67-17.13,17.13-17.13c9.46,0,17.13,7.67,17.13,17.13S692.5,134.32,683.03,134.32z"/>
</g>
</svg>
