<?xml version="1.0" encoding="utf-8"?>
<!-- Generator: Adobe Illustrator 24.2.1, SVG Export Plug-In . SVG Version: 6.00 Build 0)  -->
<svg version="1.1" id="Layer_1" xmlns="http://www.w3.org/2000/svg" xmlns:xlink="http://www.w3.org/1999/xlink" x="0px" y="0px"
	 viewBox="0 0 1366 202.49" style="enable-background:new 0 0 1366 202.49;" xml:space="preserve">
<style type="text/css">
	.st0{fill:#332633;}
	.st1{fill:#7F707F;}
	.st2{fill:none;stroke:#000000;stroke-miterlimit:10;}
	.st3{fill:#E0E0E0;}
	.st4{fill:none;stroke:#E0E0E0;stroke-width:38;stroke-miterlimit:10;}
	.st5{display:none;fill:#1D2233;}
	.st6{fill:#B3B3B3;}
</style>
<rect x="-3330.1" y="-282.75" class="st0" width="1366" height="768"/>
<path class="st1" d="M-3623.6,89.57c-45.38,0-82.17,36.79-82.17,82.17c0,45.38,36.79,82.17,82.17,82.17s82.17-36.79,82.17-82.17
	C-3541.43,126.36-3578.22,89.57-3623.6,89.57z M-3623.6,212.75c-22.64,0-41-18.36-41-41s18.36-41,41-41c22.64,0,41,18.36,41,41
	S-3600.95,212.75-3623.6,212.75z"/>
<path class="st1" d="M-4073.6,89.57c-45.38,0-82.17,36.79-82.17,82.17c0,45.38,36.79,82.17,82.17,82.17s82.17-36.79,82.17-82.17
	C-3991.43,126.36-4028.22,89.57-4073.6,89.57z M-4073.6,212.75c-22.64,0-41-18.36-41-41s18.36-41,41-41s41,18.36,41,41
	S-4050.95,212.75-4073.6,212.75z"/>
<circle class="st2" cx="-5843.6" cy="171.75" r="41"/>
<circle class="st2" cx="-5843.6" cy="171.75" r="82.17"/>
<circle class="st2" cx="-5659.6" cy="171.75" r="41"/>
<circle class="st2" cx="-5659.6" cy="171.75" r="82.17"/>
<rect x="-5802.6" y="171.75" class="st2" width="41" height="82"/>
<rect x="-5761.6" y="171.75" class="st2" width="20" height="82"/>
<rect x="-5577.6" y="171.75" class="st2" width="20" height="82"/>
<rect x="-5393.6" y="171.75" class="st2" width="20" height="82"/>
<rect x="-5128.6" y="171.75" class="st2" width="20" height="82"/>
<rect x="-5925.6" y="89.75" class="st2" width="41" height="164"/>
<circle class="st2" cx="-5475.6" cy="171.75" r="41"/>
<circle class="st2" cx="-5475.6" cy="171.75" r="82.17"/>
<circle class="st2" cx="-5025.6" cy="171.75" r="41"/>
<circle class="st2" cx="-5025.6" cy="171.75" r="82.17"/>
<circle class="st2" cx="-5291.6" cy="171.75" r="41"/>
<circle class="st2" cx="-5291.6" cy="171.75" r="82.17"/>
<circle class="st2" cx="-5270.6" cy="89.75" r="123"/>
<circle class="st2" cx="-5270.6" cy="89.75" r="164"/>
<rect x="-5434.6" y="89.75" class="st2" width="41" height="82"/>
<rect x="-5300.13" y="85.25" transform="matrix(0.5097 0.8604 -0.8604 0.5097 -2447.4565 4622.8848)" class="st2" width="41" height="157.81"/>
<rect x="-4400.6" y="171.75" class="st1" width="41" height="82"/>
<rect x="-4032.6" y="89.75" class="st1" width="41" height="82"/>
<path class="st1" d="M-4257.6,89.57c-45.38,0-82.17,36.79-82.17,82.17c0,45.38,36.79,82.17,82.17,82.17
	c45.38,0,82.17-36.79,82.17-82.17C-4175.43,126.36-4212.22,89.57-4257.6,89.57z M-4257.6,212.75c-22.64,0-41-18.36-41-41
	s18.36-41,41-41c22.64,0,41,18.36,41,41S-4234.95,212.75-4257.6,212.75z"/>
<path class="st1" d="M-4400.1,242.66c24.33-14.27,40.67-40.67,40.67-70.91c0-45.38-36.79-82.17-82.17-82.17
	c-45.38,0-82.17,36.79-82.17,82.17c0,30.65,16.79,57.36,41.67,71.49v-65.09c-0.33-2.09-0.5-4.22-0.5-6.4c0-22.64,18.36-41,41-41
	c22.64,0,41,18.36,41,41c0,0.17-0.01,0.33-0.01,0.5"/>
<path class="st1" d="M-3810.81,148.4c-10.06-34.01-41.52-58.83-78.79-58.83c-45.38,0-82.17,36.79-82.17,82.17
	c0,22.58,9.11,43.02,23.85,57.88L-3810.81,148.4z M-3889.6,130.75c7.13,0,13.83,1.82,19.67,5.02l-60.67,35.94
	C-3930.58,149.08-3912.23,130.75-3889.6,130.75z"/>
<path class="st1" d="M-3991.6,89.75c0-67.93,55.07-123,123-123s123,55.07,123,123s-58.3,119.66-123,126.26
	c-32.07,3.27-50.5-13.76-71.5-36.76l-7.82,50.38c16.65,17.21,41.2,27.56,77.99,24.29c90.22-8,165.33-73.6,165.33-164.17
	s-73.43-164-164-164s-164,73.43-164,164"/>
<path class="st3" d="M-2238.1,89.57c-45.38,0-82.17,36.79-82.17,82.17c0,45.38,36.79,82.17,82.17,82.17s82.17-36.79,82.17-82.17
	C-2155.93,126.36-2192.72,89.57-2238.1,89.57z M-2238.1,212.75c-22.64,0-41-18.36-41-41s18.36-41,41-41c22.64,0,41,18.36,41,41
	S-2215.45,212.75-2238.1,212.75z"/>
<path class="st3" d="M-2688.1,89.57c-45.38,0-82.17,36.79-82.17,82.17c0,45.38,36.79,82.17,82.17,82.17s82.17-36.79,82.17-82.17
	C-2605.93,126.36-2642.72,89.57-2688.1,89.57z M-2688.1,212.75c-22.64,0-41-18.36-41-41s18.36-41,41-41c22.64,0,41,18.36,41,41
	S-2665.45,212.75-2688.1,212.75z"/>
<rect x="-3015.1" y="171.75" class="st3" width="41" height="82"/>
<rect x="-2647.1" y="89.75" class="st3" width="41" height="82"/>
<path class="st3" d="M-2872.1,89.57c-45.38,0-82.17,36.79-82.17,82.17c0,45.38,36.79,82.17,82.17,82.17s82.17-36.79,82.17-82.17
	C-2789.93,126.36-2826.72,89.57-2872.1,89.57z M-2872.1,212.75c-22.64,0-41-18.36-41-41s18.36-41,41-41c22.64,0,41,18.36,41,41
	S-2849.45,212.75-2872.1,212.75z"/>
<path class="st3" d="M-3014.6,242.66c24.33-14.27,40.67-40.67,40.67-70.91c0-45.38-36.79-82.17-82.17-82.17
	s-82.17,36.79-82.17,82.17c0,30.65,16.79,57.36,41.67,71.49v-65.09c-0.33-2.09-0.5-4.22-0.5-6.4c0-22.64,18.36-41,41-41
	c22.64,0,41,18.36,41,41c0,0.17-0.01,0.33-0.01,0.5"/>
<path class="st3" d="M-2606.1,89.75c0-67.93,55.07-123,123-123s123,55.07,123,123s-58.3,119.66-123,126.26l-1.33,37.91
	c90.22-8,165.33-73.6,165.33-164.17s-73.43-164-164-164s-164,73.43-164,164"/>
<path class="st4" d="M-2558.79,204.99c37.14-7.97,104.4-44.74,104.4-65.61c0-27.74-35.31-43.22-66.39-35.14
	c-28.65,7.45-47.6,33.82-47.6,67.5s25.14,70.02,93.17,61.92"/>
<g>
	<path class="st3" d="M-2548.14,1259.81c-10.98,0-19.88,8.9-19.88,19.88s8.9,19.88,19.88,19.88c10.98,0,19.88-8.9,19.88-19.88
		S-2537.16,1259.81-2548.14,1259.81z M-2548.14,1289.61c-5.48,0-9.92-4.44-9.92-9.92c0-5.48,4.44-9.92,9.92-9.92
		c5.48,0,9.92,4.44,9.92,9.92C-2538.22,1285.17-2542.66,1289.61-2548.14,1289.61z"/>
</g>
<g>
	<path class="st3" d="M-2657.02,1259.81c-10.98,0-19.88,8.9-19.88,19.88s8.9,19.88,19.88,19.88c10.98,0,19.88-8.9,19.88-19.88
		S-2646.04,1259.81-2657.02,1259.81z M-2657.02,1289.61c-5.48,0-9.92-4.44-9.92-9.92c0-5.48,4.44-9.92,9.92-9.92
		c5.48,0,9.92,4.44,9.92,9.92C-2647.1,1285.17-2651.54,1289.61-2657.02,1289.61z"/>
</g>
<g>
	<rect x="-2736.13" y="1279.69" class="st3" width="9.92" height="19.84"/>
</g>
<g>
	<rect x="-2647.1" y="1259.35" class="st3" width="9.92" height="20.34"/>
</g>
<g>
	<path class="st3" d="M-2701.53,1259.81c-10.98,0-19.88,8.9-19.88,19.88s8.9,19.88,19.88,19.88s19.88-8.9,19.88-19.88
		S-2690.55,1259.81-2701.53,1259.81z M-2701.53,1289.61c-5.48,0-9.92-4.44-9.92-9.92c0-5.48,4.44-9.92,9.92-9.92
		s9.92,4.44,9.92,9.92C-2691.61,1285.17-2696.06,1289.61-2701.53,1289.61z"/>
</g>
<g>
	<path class="st3" d="M-2736.01,1296.85c5.89-3.45,9.84-9.84,9.84-17.16c0-10.98-8.9-19.88-19.88-19.88
		c-10.98,0-19.88,8.9-19.88,19.88c0,7.42,4.06,13.88,10.08,17.3v-15.75c-0.08-0.5-0.12-1.02-0.12-1.55c0-5.48,4.44-9.92,9.92-9.92
		c5.48,0,9.92,4.44,9.92,9.92c0,0.04,0,0.08,0,0.12"/>
</g>
<g>
	<path class="st3" d="M-2637.18,1259.85c0-16.44,13.32-29.76,29.76-29.76c16.44,0,29.76,13.32,29.76,29.76s-14.1,28.95-29.76,30.55
		l-0.32,9.17c21.83-1.94,40-17.81,40-39.72s-17.76-39.68-39.68-39.68s-39.68,17.76-39.68,39.68"/>
</g>
<g>
	<path class="st3" d="M-2609.93,1299.54c-8.38,0-13.49-2.83-16.43-5.44c-4.06-3.6-6.29-8.72-6.29-14.42c0-4.94,1.39-9.51,4.01-13.2
		c2.69-3.79,6.47-6.41,10.95-7.58c5.93-1.54,12.35-0.39,16.74,3.01c3.27,2.53,5.07,6.06,5.07,9.94c0,2.55-1.35,5.06-4.12,7.68
		c-1.85,1.75-4.34,3.56-7.38,5.37c-2.87,1.71-5.95,3.26-8.93,4.52c2.75,0.92,6.22,1.15,10.26,0.67l1.09,9.13
		C-2606.73,1299.45-2608.39,1299.54-2609.93,1299.54z M-2612.43,1267.44c-0.99,0-1.99,0.12-2.95,0.37
		c-4.91,1.28-8.08,5.94-8.08,11.88c0,0.66,0.06,1.55,0.28,2.53c3.09-1.07,6.68-2.7,9.93-4.54c5.43-3.07,7.62-5.38,8.15-6.2
		c-0.06-0.53-0.33-1.4-1.48-2.29C-2608.05,1268.05-2610.2,1267.44-2612.43,1267.44z"/>
</g>
<rect x="-1944.1" y="-282.75" class="st0" width="1366" height="768"/>
<path class="st3" d="M-852.1,89.57c-45.38,0-82.17,36.79-82.17,82.17c0,45.38,36.79,82.17,82.17,82.17s82.17-36.79,82.17-82.17
	C-769.93,126.36-806.72,89.57-852.1,89.57z M-852.1,212.75c-22.64,0-41-18.36-41-41s18.36-41,41-41s41,18.36,41,41
	S-829.45,212.75-852.1,212.75z"/>
<path class="st3" d="M-1302.1,89.57c-45.38,0-82.17,36.79-82.17,82.17c0,45.38,36.79,82.17,82.17,82.17s82.17-36.79,82.17-82.17
	C-1219.93,126.36-1256.72,89.57-1302.1,89.57z M-1302.1,212.75c-22.64,0-41-18.36-41-41s18.36-41,41-41s41,18.36,41,41
	S-1279.45,212.75-1302.1,212.75z"/>
<rect x="-1629.1" y="171.75" class="st3" width="41" height="82"/>
<rect x="-1261.1" y="89.75" class="st3" width="41" height="82"/>
<path class="st3" d="M-1486.1,89.57c-45.38,0-82.17,36.79-82.17,82.17c0,45.38,36.79,82.17,82.17,82.17s82.17-36.79,82.17-82.17
	C-1403.93,126.36-1440.72,89.57-1486.1,89.57z M-1486.1,212.75c-22.64,0-41-18.36-41-41s18.36-41,41-41s41,18.36,41,41
	S-1463.45,212.75-1486.1,212.75z"/>
<path class="st3" d="M-1628.6,242.66c24.33-14.27,40.67-40.67,40.67-70.91c0-45.38-36.79-82.17-82.17-82.17
	s-82.17,36.79-82.17,82.17c0,30.65,16.79,57.36,41.67,71.49v-65.09c-0.33-2.09-0.5-4.22-0.5-6.4c0-22.64,18.36-41,41-41
	s41,18.36,41,41c0,0.17-0.01,0.33-0.01,0.5"/>
<path class="st3" d="M-1220.1,89.75c0-67.93,55.07-123,123-123s123,55.07,123,123s-58.3,119.66-123,126.26l-1.33,37.91
	c90.22-8,165.33-73.6,165.33-164.17s-73.43-164-164-164s-164,73.43-164,164"/>
<path class="st4" d="M-1167.31,171.75c44.21,6.26,103.05-5.34,113.1-55.48c5.45-27.16-18.64-58.79-71.87-35.63
	c-41.63,18.11-56.3,54.79-56.3,91.11c0,41.25,37.52,71.49,93.67,61.93"/>
<rect y="-282.75" class="st5" width="1366" height="768"/>
<g>
	<path class="st6" d="M837.38,82.86c-18.96,0-34.33,15.37-34.33,34.33c0,18.96,15.37,34.33,34.33,34.33s34.33-15.37,34.33-34.33
		C871.72,98.23,856.35,82.86,837.38,82.86z M837.38,134.32c-9.46,0-17.13-7.67-17.13-17.13s7.67-17.13,17.13-17.13
		s17.13,7.67,17.13,17.13S846.85,134.32,837.38,134.32z"/>
	<path class="st6" d="M605.83,83.19c-18.96,0-34.33,15.37-34.33,34.33s15.37,34.33,34.33,34.33s34.33-15.37,34.33-34.33
		S624.79,83.19,605.83,83.19z M605.83,134.65c-9.46,0-17.13-7.67-17.13-17.13s7.67-17.13,17.13-17.13s17.13,7.67,17.13,17.13
		S615.29,134.65,605.83,134.65z"/>
	<path class="st6" d="M562.95,117.19c0-18.96-15.37-34.33-34.33-34.33c-18.96,0-34.33,15.37-34.33,34.33
		c0,12.81,7.02,23.97,17.41,29.87v-27.2c-0.14-0.87-0.21-1.76-0.21-2.67c0-9.46,7.67-17.13,17.13-17.13s17.13,7.67,17.13,17.13
		c0,0.07,0,0.14-0.01,0.21l0.01,0.73v33.32h17.13v-32.06C562.92,118.67,562.95,117.93,562.95,117.19z"/>
	<path class="st6" d="M743.04,117.26h44.93v-0.07h6.54c0-15.98-10.92-29.41-25.7-33.24c-0.54-18.49-15.69-33.32-34.31-33.32
		c-18.28,0-33.21,14.28-34.27,32.29h-0.07v4.51c-5.04-2.91-10.89-4.58-17.13-4.58c-18.96,0-34.33,15.37-34.33,34.33
		c0,18.96,15.37,34.33,34.33,34.33c18.96,0,34.33-15.37,34.33-34.33c0-0.71-0.03-1.42-0.07-2.12v-30.1h0.07
		c0-9.46,7.67-17.13,17.13-17.13v0c9.11,0,16.56,7.12,17.1,16.1c-14.81,3.81-25.76,17.25-25.76,33.25c0,7.43,2.37,14.31,6.38,19.93
		c0,0,0,0.01,0.01,0.01c0.63,0.89,1.31,1.74,2.02,2.56c0.02,0.02,0.04,0.05,0.06,0.07c0.69,0.79,1.41,1.54,2.17,2.27
		c0.06,0.05,0.11,0.11,0.17,0.16c0.72,0.68,1.47,1.33,2.25,1.94c0.11,0.09,0.21,0.17,0.32,0.25c0.24,0.18,0.47,0.36,0.71,0.54
		c0.12,0.09,0.25,0.18,0.37,0.27c0.39,0.28,0.78,0.54,1.18,0.8c0.17,0.11,0.34,0.22,0.52,0.33c0.22,0.13,0.43,0.27,0.65,0.4
		c0.25,0.15,0.5,0.29,0.75,0.43c0.27,0.15,0.55,0.3,0.83,0.45c0.24,0.13,0.49,0.25,0.73,0.38c0.19,0.09,0.38,0.19,0.58,0.28
		c0.35,0.17,0.71,0.33,1.07,0.48c0.17,0.07,0.35,0.15,0.52,0.22c0.32,0.13,0.63,0.26,0.96,0.38c0.17,0.06,0.34,0.13,0.51,0.19
		c0.43,0.15,0.87,0.3,1.31,0.44c0.1,0.03,0.19,0.06,0.29,0.08c0.38,0.12,0.77,0.23,1.16,0.33c0.15,0.04,0.3,0.08,0.45,0.12
		c0.47,0.12,0.94,0.23,1.42,0.33c0.05,0.01,0.11,0.02,0.17,0.03c0.44,0.09,0.89,0.17,1.34,0.24c0.14,0.02,0.27,0.04,0.41,0.06
		c0.5,0.07,1,0.14,1.51,0.19c0.02,0,0.05,0,0.07,0.01c0.49,0.05,0.99,0.08,1.49,0.11c0.13,0.01,0.26,0.01,0.4,0.02
		c0.52,0.02,1.04,0.04,1.57,0.04c12.72,0,23.82-6.92,29.75-17.2h-29.75C750.74,134.32,743.08,126.69,743.04,117.26z M683.03,134.32
		c-9.46,0-17.13-7.67-17.13-17.13s7.67-17.13,17.13-17.13c9.46,0,17.13,7.67,17.13,17.13S692.5,134.32,683.03,134.32z"/>
</g>
</svg>
