<?xml version="1.0" encoding="utf-8"?>
<!-- Generator: Adobe Illustrator 24.2.1, SVG Export Plug-In . SVG Version: 6.00 Build 0)  -->
<svg version="1.1" id="Layer_1" xmlns="http://www.w3.org/2000/svg" xmlns:xlink="http://www.w3.org/1999/xlink" x="0px" y="0px"
	 viewBox="0 0 1366 768" style="enable-background:new 0 0 1366 768;" xml:space="preserve">
<style type="text/css">
	.st0{fill:#332633;}
	.st1{fill:#7F707F;}
	.st2{fill:none;stroke:#000000;stroke-miterlimit:10;}
	.st3{fill:#E0E0E0;}
	.st4{fill:none;stroke:#E0E0E0;stroke-width:38;stroke-miterlimit:10;}
	.st5{display:none;fill:#1D2233;}
	.st6{fill:#B3B3B3;}
</style>
<rect x="-3330.1" class="st0" width="1366" height="768"/>
<path class="st1" d="M-3623.6,372.33c-45.38,0-82.17,36.79-82.17,82.17c0,45.38,36.79,82.17,82.17,82.17s82.17-36.79,82.17-82.17
	C-3541.43,409.12-3578.22,372.33-3623.6,372.33z M-3623.6,495.5c-22.64,0-41-18.36-41-41s18.36-41,41-41c22.64,0,41,18.36,41,41
	S-3600.95,495.5-3623.6,495.5z"/>
<path class="st1" d="M-4073.6,372.33c-45.38,0-82.17,36.79-82.17,82.17c0,45.38,36.79,82.17,82.17,82.17s82.17-36.79,82.17-82.17
	C-3991.43,409.12-4028.22,372.33-4073.6,372.33z M-4073.6,495.5c-22.64,0-41-18.36-41-41s18.36-41,41-41s41,18.36,41,41
	S-4050.95,495.5-4073.6,495.5z"/>
<circle class="st2" cx="-5843.6" cy="454.5" r="41"/>
<circle class="st2" cx="-5843.6" cy="454.5" r="82.17"/>
<circle class="st2" cx="-5659.6" cy="454.5" r="41"/>
<circle class="st2" cx="-5659.6" cy="454.5" r="82.17"/>
<rect x="-5802.6" y="454.5" class="st2" width="41" height="82"/>
<rect x="-5761.6" y="454.5" class="st2" width="20" height="82"/>
<rect x="-5577.6" y="454.5" class="st2" width="20" height="82"/>
<rect x="-5393.6" y="454.5" class="st2" width="20" height="82"/>
<rect x="-5128.6" y="454.5" class="st2" width="20" height="82"/>
<rect x="-5925.6" y="372.5" class="st2" width="41" height="164"/>
<circle class="st2" cx="-5475.6" cy="454.5" r="41"/>
<circle class="st2" cx="-5475.6" cy="454.5" r="82.17"/>
<circle class="st2" cx="-5025.6" cy="454.5" r="41"/>
<circle class="st2" cx="-5025.6" cy="454.5" r="82.17"/>
<circle class="st2" cx="-5291.6" cy="454.5" r="41"/>
<circle class="st2" cx="-5291.6" cy="454.5" r="82.17"/>
<circle class="st2" cx="-5270.6" cy="372.5" r="123"/>
<circle class="st2" cx="-5270.6" cy="372.5" r="164"/>
<rect x="-5434.6" y="372.5" class="st2" width="41" height="82"/>
<rect x="-5300.13" y="368" transform="matrix(0.5097 0.8604 -0.8604 0.5097 -2204.1858 4761.5234)" class="st2" width="41" height="157.81"/>
<rect x="-4400.6" y="454.5" class="st1" width="41" height="82"/>
<rect x="-4032.6" y="372.5" class="st1" width="41" height="82"/>
<path class="st1" d="M-4257.6,372.33c-45.38,0-82.17,36.79-82.17,82.17c0,45.38,36.79,82.17,82.17,82.17
	c45.38,0,82.17-36.79,82.17-82.17C-4175.43,409.12-4212.22,372.33-4257.6,372.33z M-4257.6,495.5c-22.64,0-41-18.36-41-41
	s18.36-41,41-41c22.64,0,41,18.36,41,41S-4234.95,495.5-4257.6,495.5z"/>
<path class="st1" d="M-4400.1,525.41c24.33-14.27,40.67-40.67,40.67-70.91c0-45.38-36.79-82.17-82.17-82.17
	c-45.38,0-82.17,36.79-82.17,82.17c0,30.65,16.79,57.36,41.67,71.49V460.9c-0.33-2.09-0.5-4.22-0.5-6.4c0-22.64,18.36-41,41-41
	c22.64,0,41,18.36,41,41c0,0.17-0.01,0.33-0.01,0.5"/>
<path class="st1" d="M-3810.81,431.15c-10.06-34.01-41.52-58.83-78.79-58.83c-45.38,0-82.17,36.79-82.17,82.17
	c0,22.58,9.11,43.02,23.85,57.88L-3810.81,431.15z M-3889.6,413.5c7.13,0,13.83,1.82,19.67,5.02l-60.67,35.94
	C-3930.58,431.84-3912.23,413.5-3889.6,413.5z"/>
<path class="st1" d="M-3991.6,372.5c0-67.93,55.07-123,123-123s123,55.07,123,123s-58.3,119.66-123,126.26
	c-32.07,3.27-50.5-13.76-71.5-36.76l-7.82,50.38c16.65,17.21,41.2,27.56,77.99,24.29c90.22-8,165.33-73.6,165.33-164.17
	s-73.43-164-164-164s-164,73.43-164,164"/>
<path class="st3" d="M-2238.1,372.33c-45.38,0-82.17,36.79-82.17,82.17c0,45.38,36.79,82.17,82.17,82.17s82.17-36.79,82.17-82.17
	C-2155.93,409.12-2192.72,372.33-2238.1,372.33z M-2238.1,495.5c-22.64,0-41-18.36-41-41s18.36-41,41-41c22.64,0,41,18.36,41,41
	S-2215.45,495.5-2238.1,495.5z"/>
<path class="st3" d="M-2688.1,372.33c-45.38,0-82.17,36.79-82.17,82.17c0,45.38,36.79,82.17,82.17,82.17s82.17-36.79,82.17-82.17
	C-2605.93,409.12-2642.72,372.33-2688.1,372.33z M-2688.1,495.5c-22.64,0-41-18.36-41-41s18.36-41,41-41c22.64,0,41,18.36,41,41
	S-2665.45,495.5-2688.1,495.5z"/>
<rect x="-3015.1" y="454.5" class="st3" width="41" height="82"/>
<rect x="-2647.1" y="372.5" class="st3" width="41" height="82"/>
<path class="st3" d="M-2872.1,372.33c-45.38,0-82.17,36.79-82.17,82.17c0,45.38,36.79,82.17,82.17,82.17s82.17-36.79,82.17-82.17
	C-2789.93,409.12-2826.72,372.33-2872.1,372.33z M-2872.1,495.5c-22.64,0-41-18.36-41-41s18.36-41,41-41c22.64,0,41,18.36,41,41
	S-2849.45,495.5-2872.1,495.5z"/>
<path class="st3" d="M-3014.6,525.41c24.33-14.27,40.67-40.67,40.67-70.91c0-45.38-36.79-82.17-82.17-82.17
	s-82.17,36.79-82.17,82.17c0,30.65,16.79,57.36,41.67,71.49V460.9c-0.33-2.09-0.5-4.22-0.5-6.4c0-22.64,18.36-41,41-41
	c22.64,0,41,18.36,41,41c0,0.17-0.01,0.33-0.01,0.5"/>
<path class="st3" d="M-2606.1,372.5c0-67.93,55.07-123,123-123s123,55.07,123,123s-58.3,119.66-123,126.26l-1.33,37.91
	c90.22-8,165.33-73.6,165.33-164.17s-73.43-164-164-164s-164,73.43-164,164"/>
<path class="st4" d="M-2558.79,487.74c37.14-7.97,104.4-44.74,104.4-65.61c0-27.74-35.31-43.22-66.39-35.14
	c-28.65,7.45-47.6,33.82-47.6,67.5s25.14,70.02,93.17,61.92"/>
<g>
	<path class="st3" d="M-2548.14,1542.56c-10.98,0-19.88,8.9-19.88,19.88s8.9,19.88,19.88,19.88c10.98,0,19.88-8.9,19.88-19.88
		S-2537.16,1542.56-2548.14,1542.56z M-2548.14,1572.36c-5.48,0-9.92-4.44-9.92-9.92s4.44-9.92,9.92-9.92
		c5.48,0,9.92,4.44,9.92,9.92S-2542.66,1572.36-2548.14,1572.36z"/>
</g>
<g>
	<path class="st3" d="M-2657.02,1542.56c-10.98,0-19.88,8.9-19.88,19.88s8.9,19.88,19.88,19.88c10.98,0,19.88-8.9,19.88-19.88
		S-2646.04,1542.56-2657.02,1542.56z M-2657.02,1572.36c-5.48,0-9.92-4.44-9.92-9.92s4.44-9.92,9.92-9.92
		c5.48,0,9.92,4.44,9.92,9.92S-2651.54,1572.36-2657.02,1572.36z"/>
</g>
<g>
	<rect x="-2736.13" y="1562.44" class="st3" width="9.92" height="19.84"/>
</g>
<g>
	<rect x="-2647.1" y="1542.1" class="st3" width="9.92" height="20.34"/>
</g>
<g>
	<path class="st3" d="M-2701.53,1542.56c-10.98,0-19.88,8.9-19.88,19.88s8.9,19.88,19.88,19.88s19.88-8.9,19.88-19.88
		S-2690.55,1542.56-2701.53,1542.56z M-2701.53,1572.36c-5.48,0-9.92-4.44-9.92-9.92s4.44-9.92,9.92-9.92s9.92,4.44,9.92,9.92
		S-2696.06,1572.36-2701.53,1572.36z"/>
</g>
<g>
	<path class="st3" d="M-2736.01,1579.6c5.89-3.45,9.84-9.84,9.84-17.16c0-10.98-8.9-19.88-19.88-19.88
		c-10.98,0-19.88,8.9-19.88,19.88c0,7.42,4.06,13.88,10.08,17.3v-15.75c-0.08-0.5-0.12-1.02-0.12-1.55c0-5.48,4.44-9.92,9.92-9.92
		c5.48,0,9.92,4.44,9.92,9.92c0,0.04,0,0.08,0,0.12"/>
</g>
<g>
	<path class="st3" d="M-2637.18,1542.6c0-16.44,13.32-29.76,29.76-29.76c16.44,0,29.76,13.32,29.76,29.76
		c0,16.44-14.1,28.95-29.76,30.55l-0.32,9.17c21.83-1.94,40-17.81,40-39.72s-17.76-39.68-39.68-39.68s-39.68,17.76-39.68,39.68"/>
</g>
<g>
	<path class="st3" d="M-2609.93,1582.3c-8.38,0-13.49-2.83-16.43-5.44c-4.06-3.6-6.29-8.72-6.29-14.42c0-4.94,1.39-9.51,4.01-13.2
		c2.69-3.79,6.47-6.41,10.95-7.58c5.93-1.54,12.35-0.39,16.74,3.01c3.27,2.53,5.07,6.06,5.07,9.94c0,2.55-1.35,5.06-4.12,7.68
		c-1.85,1.75-4.34,3.56-7.38,5.37c-2.87,1.71-5.95,3.26-8.93,4.52c2.75,0.92,6.22,1.15,10.26,0.67l1.09,9.13
		C-2606.73,1582.2-2608.39,1582.3-2609.93,1582.3z M-2612.43,1550.19c-0.99,0-1.99,0.12-2.95,0.37c-4.91,1.28-8.08,5.94-8.08,11.88
		c0,0.66,0.06,1.55,0.28,2.53c3.09-1.07,6.68-2.7,9.93-4.54c5.43-3.07,7.62-5.38,8.15-6.2c-0.06-0.53-0.33-1.4-1.48-2.29
		C-2608.05,1550.81-2610.2,1550.19-2612.43,1550.19z"/>
</g>
<rect x="-1944.1" class="st0" width="1366" height="768"/>
<path class="st3" d="M-852.1,372.33c-45.38,0-82.17,36.79-82.17,82.17c0,45.38,36.79,82.17,82.17,82.17s82.17-36.79,82.17-82.17
	C-769.93,409.12-806.72,372.33-852.1,372.33z M-852.1,495.5c-22.64,0-41-18.36-41-41s18.36-41,41-41s41,18.36,41,41
	S-829.45,495.5-852.1,495.5z"/>
<path class="st3" d="M-1302.1,372.33c-45.38,0-82.17,36.79-82.17,82.17c0,45.38,36.79,82.17,82.17,82.17s82.17-36.79,82.17-82.17
	C-1219.93,409.12-1256.72,372.33-1302.1,372.33z M-1302.1,495.5c-22.64,0-41-18.36-41-41s18.36-41,41-41s41,18.36,41,41
	S-1279.45,495.5-1302.1,495.5z"/>
<rect x="-1629.1" y="454.5" class="st3" width="41" height="82"/>
<rect x="-1261.1" y="372.5" class="st3" width="41" height="82"/>
<path class="st3" d="M-1486.1,372.33c-45.38,0-82.17,36.79-82.17,82.17c0,45.38,36.79,82.17,82.17,82.17s82.17-36.79,82.17-82.17
	C-1403.93,409.12-1440.72,372.33-1486.1,372.33z M-1486.1,495.5c-22.64,0-41-18.36-41-41s18.36-41,41-41s41,18.36,41,41
	S-1463.45,495.5-1486.1,495.5z"/>
<path class="st3" d="M-1628.6,525.41c24.33-14.27,40.67-40.67,40.67-70.91c0-45.38-36.79-82.17-82.17-82.17
	s-82.17,36.79-82.17,82.17c0,30.65,16.79,57.36,41.67,71.49V460.9c-0.33-2.09-0.5-4.22-0.5-6.4c0-22.64,18.36-41,41-41
	s41,18.36,41,41c0,0.17-0.01,0.33-0.01,0.5"/>
<path class="st3" d="M-1220.1,372.5c0-67.93,55.07-123,123-123s123,55.07,123,123s-58.3,119.66-123,126.26l-1.33,37.91
	c90.22-8,165.33-73.6,165.33-164.17s-73.43-164-164-164s-164,73.43-164,164"/>
<path class="st4" d="M-1167.31,454.5c44.21,6.26,103.05-5.34,113.1-55.48c5.45-27.16-18.64-58.79-71.87-35.63
	c-41.63,18.11-56.3,54.79-56.3,91.11c0,41.25,37.52,71.49,93.67,61.93"/>
<rect class="st5" width="1366" height="768"/>
<path class="st6" d="M1011.4,321.73c-45.38,0-82.17,36.79-82.17,82.17c0,45.38,36.79,82.17,82.17,82.17s82.17-36.79,82.17-82.17
	C1093.58,358.52,1056.79,321.73,1011.4,321.73z M1011.4,444.9c-22.64,0-41-18.36-41-41s18.36-41,41-41s41,18.36,41,41
	S1034.05,444.9,1011.4,444.9z"/>
<path class="st6" d="M457.22,322.51c-45.38,0-82.17,36.79-82.17,82.17c0,45.38,36.79,82.17,82.17,82.17s82.17-36.79,82.17-82.17
	C539.39,359.3,502.6,322.51,457.22,322.51z M457.22,445.68c-22.64,0-41-18.36-41-41s18.36-41,41-41s41,18.36,41,41
	S479.86,445.68,457.22,445.68z"/>
<path class="st6" d="M354.6,403.9c0-45.38-36.79-82.17-82.17-82.17s-82.17,36.79-82.17,82.17c0,30.65,16.79,57.36,41.67,71.49V410.3
	c-0.33-2.09-0.5-4.22-0.5-6.4c0-22.64,18.36-41,41-41s41,18.36,41,41c0,0.17-0.01,0.33-0.01,0.5l0.01,1.74v79.76h41v-76.73
	C354.54,407.43,354.6,405.67,354.6,403.9z"/>
<path class="st6" d="M785.62,404.07h107.52v-0.17h15.64c0-38.24-26.13-70.38-61.51-79.55c-1.29-44.25-37.54-79.74-82.11-79.74
	c-43.74,0-79.48,34.18-82.01,77.28H683v10.8c-12.07-6.97-26.06-10.97-41-10.97c-45.38,0-82.17,36.79-82.17,82.17
	c0,45.38,36.79,82.17,82.17,82.17c45.38,0,82.17-36.79,82.17-82.17c0-1.71-0.07-3.4-0.17-5.08v-72.03h0.17c0-22.64,18.36-41,41-41v0
	c21.81,0,39.64,17.03,40.92,38.53c-35.45,9.12-61.65,41.29-61.65,79.59c0,17.79,5.67,34.24,15.27,47.69
	c0.01,0.01,0.01,0.02,0.02,0.02c1.51,2.12,3.13,4.16,4.83,6.13c0.05,0.06,0.1,0.11,0.15,0.17c1.65,1.89,3.38,3.7,5.19,5.42
	c0.13,0.13,0.27,0.26,0.4,0.38c1.73,1.62,3.52,3.17,5.38,4.65c0.26,0.2,0.51,0.41,0.77,0.61c0.56,0.43,1.13,0.87,1.7,1.29
	c0.3,0.22,0.6,0.42,0.9,0.64c0.93,0.66,1.87,1.3,2.82,1.92c0.41,0.27,0.82,0.53,1.24,0.79c0.52,0.32,1.03,0.64,1.56,0.95
	c0.6,0.35,1.2,0.7,1.81,1.04c0.66,0.37,1.32,0.73,1.98,1.08c0.58,0.31,1.17,0.61,1.76,0.9c0.46,0.23,0.92,0.45,1.38,0.67
	c0.85,0.4,1.7,0.79,2.56,1.16c0.42,0.18,0.84,0.35,1.26,0.52c0.76,0.31,1.52,0.61,2.29,0.9c0.4,0.15,0.8,0.3,1.21,0.45
	c1.03,0.37,2.08,0.73,3.13,1.06c0.23,0.07,0.46,0.13,0.69,0.2c0.92,0.28,1.85,0.54,2.78,0.79c0.36,0.09,0.71,0.19,1.07,0.28
	c1.13,0.28,2.26,0.55,3.4,0.78c0.13,0.03,0.26,0.05,0.4,0.07c1.06,0.21,2.14,0.4,3.21,0.57c0.33,0.05,0.66,0.1,0.99,0.15
	c1.2,0.18,2.4,0.33,3.61,0.46c0.05,0.01,0.11,0.01,0.16,0.01c1.18,0.12,2.37,0.2,3.56,0.27c0.32,0.02,0.63,0.03,0.95,0.05
	c1.25,0.06,2.5,0.1,3.76,0.1c30.44,0,57-16.57,71.2-41.17h-71.2C804.03,444.9,785.71,426.64,785.62,404.07z M642,444.9
	c-22.64,0-41-18.36-41-41s18.36-41,41-41c22.64,0,41,18.36,41,41S664.64,444.9,642,444.9z"/>
</svg>
